<svg xmlns="http://www.w3.org/2000/svg">
    <symbol id="logo2" viewBox="0 0 25 25" >
            <path d="M7.92434227,9.50760167 L13.166166,17.1713934 L3.11391106,17.4355781 L7.92434227,9.50760167 Z" id="Triangle" stroke="#00B849" fill="#00B849" transform="translate(8.068683, 13.250591) rotate(90.000000) translate(-8.068683, -13.250591) "></path>
            <path d="M10.0486849,8.44861279 L20.3709471,18.4291766 L10.2211543,18.7231471 L10.0486849,8.44861279 Z" id="Triangle-Copy" stroke="#003264" fill="#003264" transform="translate(15.538000, 13.188142) rotate(270.000000) translate(-15.538000, -13.188142) "></path>
            <path d="M24.4575339,0.70928923 L24.7464569,18.5142465 L23.9387245,18.6296368 L23.7494589,2.46928598 L23.7494589,2.46928598 L23.6730913,2.52631027 C23.1519539,2.91545127 20.7093107,4.73946367 18.2214685,6.59785501 L17.7398901,6.95759686 C16.8578092,7.61653164 15.9852789,8.26841853 15.2061289,8.85068643 C14.626852,9.28358676 14.0991886,9.67800707 13.659798,10.0065838 L13.2511894,10.3121991 L13.2511894,10.3121991 L13.0714991,10.4466457 L2.68248635,3.53792857 L1.24476831,2.4652013 L1.24476831,18.5137403 L0.433959828,18.6295701 L0.254849974,0.845172958 C8.23443277,6.36894495 12.1603589,9.28369344 12.300063,9.46628998 C12.838196,9.28548883 16.7625176,6.36950984 24.4575339,0.70928923 L24.4575339,0.70928923 Z" stroke="#092333" fill="#092333"></path>
    </symbol>
    <symbol id="home" viewBox="0 -960 960 960">
        <path d="M240-200h120v-240h240v240h120v-360L480-740 240-560v360Zm-80 80v-480l320-240 320 240v480H520v-240h-80v240H160Zm320-350Z"/>
    </symbol>

    <symbol id="network-node" viewBox="0 -960 960 960">
        <path d="M220-80q-58 0-99-41t-41-99q0-58 41-99t99-41q18 0 35 4.5t32 12.5l153-153v-110q-44-13-72-49.5T340-740q0-58 41-99t99-41q58 0 99 41t41 99q0 48-28 84.5T520-606v110l154 153q15-8 31.5-12.5T740-360q58 0 99 41t41 99q0 58-41 99t-99 41q-58 0-99-41t-41-99q0-18 4.5-35t12.5-32L480-424 343-287q8 15 12.5 32t4.5 35q0 58-41 99t-99 41Zm520-80q25 0 42.5-17.5T800-220q0-25-17.5-42.5T740-280q-25 0-42.5 17.5T680-220q0 25 17.5 42.5T740-160ZM480-680q25 0 42.5-17.5T540-740q0-25-17.5-42.5T480-800q-25 0-42.5 17.5T420-740q0 25 17.5 42.5T480-680ZM220-160q25 0 42.5-17.5T280-220q0-25-17.5-42.5T220-280q-25 0-42.5 17.5T160-220q0 25 17.5 42.5T220-160Z"/>
    </symbol>
    <symbol id="adjust" viewBox="0 -960 960 960">
        <path d="M480-360q50 0 85-35t35-85q0-50-35-85t-85-35q-50 0-85 35t-35 85q0 50 35 85t85 35Zm0 280q-83 0-156-31.5T197-197q-54-54-85.5-127T80-480q0-83 31.5-156T197-763q54-54 127-85.5T480-880q83 0 156 31.5T763-763q54 54 85.5 127T880-480q0 83-31.5 156T763-197q-54 54-127 85.5T480-80Zm0-80q134 0 227-93t93-227q0-134-93-227t-227-93q-134 0-227 93t-93 227q0 134 93 227t227 93Zm0-320Z"/>
    </symbol>
    <symbol id="check_circle" viewBox="0 -960 960 960">
        <path d="m424-296 282-282-56-56-226 226-114-114-56 56 170 170Zm56 216q-83 0-156-31.5T197-197q-54-54-85.5-127T80-480q0-83 31.5-156T197-763q54-54 127-85.5T480-880q83 0 156 31.5T763-763q54 54 85.5 127T880-480q0 83-31.5 156T763-197q-54 54-127 85.5T480-80Zm0-80q134 0 227-93t93-227q0-134-93-227t-227-93q-134 0-227 93t-93 227q0 134 93 227t227 93Zm0-320Z"/>
    </symbol>
    <symbol id="cancel" viewBox="0 -960 960 960">
        <path d="m336-280 144-144 144 144 56-56-144-144 144-144-56-56-144 144-144-144-56 56 144 144-144 144 56 56ZM480-80q-83 0-156-31.5T197-197q-54-54-85.5-127T80-480q0-83 31.5-156T197-763q54-54 127-85.5T480-880q83 0 156 31.5T763-763q54 54 85.5 127T880-480q0 83-31.5 156T763-197q-54 54-127 85.5T480-80Zm0-80q134 0 227-93t93-227q0-134-93-227t-227-93q-134 0-227 93t-93 227q0 134 93 227t227 93Zm0-320Z"/>
    </symbol>
    <symbol id="terminal" viewBox="0 -960 960 960">
        <path d="M160-160q-33 0-56.5-23.5T80-240v-480q0-33 23.5-56.5T160-800h640q33 0 56.5 23.5T880-720v480q0 33-23.5 56.5T800-160H160Zm0-80h640v-400H160v400Zm140-40-56-56 103-104-104-104 57-56 160 160-160 160Zm180 0v-80h240v80H480Z"/>
    </symbol>
    <symbol id="settings" viewBox="0 -960 960 960" >
        <path d="m370-80-16-128q-13-5-24.5-12T307-235l-119 50L78-375l103-78q-1-7-1-13.5v-27q0-6.5 1-13.5L78-585l110-190 119 50q11-8 23-15t24-12l16-128h220l16 128q13 5 24.5 12t22.5 15l119-50 110 190-103 78q1 7 1 13.5v27q0 6.5-2 13.5l103 78-110 190-118-50q-11 8-23 15t-24 12L590-80H370Zm70-80h79l14-106q31-8 57.5-23.5T639-327l99 41 39-68-86-65q5-14 7-29.5t2-31.5q0-16-2-31.5t-7-29.5l86-65-39-68-99 42q-22-23-48.5-38.5T533-694l-13-106h-79l-14 106q-31 8-57.5 23.5T321-633l-99-41-39 68 86 64q-5 15-7 30t-2 32q0 16 2 31t7 30l-86 65 39 68 99-42q22 23 48.5 38.5T427-266l13 106Zm42-180q58 0 99-41t41-99q0-58-41-99t-99-41q-59 0-99.5 41T342-480q0 58 40.5 99t99.5 41Zm-2-140Z"/>
    </symbol>
    <symbol id="power" viewBox="0 -960 960 960">
        <path d="M480-80q-83 0-156-31.5T197-197q-54-54-85.5-127T80-480q0-84 31.5-156.5T197-763l56 56q-44 44-68.5 102T160-480q0 134 93 227t227 93q134 0 227-93t93-227q0-67-24.5-125T707-707l56-56q54 54 85.5 126.5T880-480q0 83-31.5 156T763-197q-54 54-127 85.5T480-80Zm-40-360v-440h80v440h-80Z"/>
    </symbol>
</svg>
